<mxfile host="app.diagrams.net" modified="2024-04-19T14:20:46.546Z" agent="Mozilla/5.0 (Windows NT 10.0; Win64; x64) AppleWebKit/537.36 (KHTML, like Gecko) Chrome/123.0.0.0 Safari/537.36" etag="wZNf2To9MN7FeoDVcmH7" version="24.2.5" type="github">
  <diagram name="Página-1" id="48yXKGRJETuMpNYpAfPb">
    <mxGraphModel dx="2261" dy="772" grid="1" gridSize="10" guides="1" tooltips="1" connect="1" arrows="1" fold="1" page="1" pageScale="1" pageWidth="827" pageHeight="1169" math="0" shadow="0">
      <root>
        <mxCell id="0" />
        <mxCell id="1" parent="0" />
        <mxCell id="YQuknea44hqfS1W9OkNM-2" value="" style="rounded=0;whiteSpace=wrap;html=1;" vertex="1" parent="1">
          <mxGeometry x="-2" width="1012" height="560" as="geometry" />
        </mxCell>
        <mxCell id="YQuknea44hqfS1W9OkNM-3" value="" style="rounded=0;whiteSpace=wrap;html=1;" vertex="1" parent="1">
          <mxGeometry x="-2" width="1012" height="100" as="geometry" />
        </mxCell>
        <mxCell id="YQuknea44hqfS1W9OkNM-4" value="logo" style="ellipse;whiteSpace=wrap;html=1;aspect=fixed;" vertex="1" parent="1">
          <mxGeometry x="80" y="10" width="80" height="80" as="geometry" />
        </mxCell>
        <mxCell id="YQuknea44hqfS1W9OkNM-5" value="Lista" style="text;html=1;align=center;verticalAlign=middle;whiteSpace=wrap;rounded=0;" vertex="1" parent="1">
          <mxGeometry x="490" y="35" width="60" height="30" as="geometry" />
        </mxCell>
        <mxCell id="YQuknea44hqfS1W9OkNM-6" value="Lista" style="text;html=1;align=center;verticalAlign=middle;whiteSpace=wrap;rounded=0;" vertex="1" parent="1">
          <mxGeometry x="610" y="35" width="60" height="30" as="geometry" />
        </mxCell>
        <mxCell id="YQuknea44hqfS1W9OkNM-7" value="Lista" style="text;html=1;align=center;verticalAlign=middle;whiteSpace=wrap;rounded=0;" vertex="1" parent="1">
          <mxGeometry x="730" y="35" width="60" height="30" as="geometry" />
        </mxCell>
        <mxCell id="YQuknea44hqfS1W9OkNM-8" value="Lista" style="text;html=1;align=center;verticalAlign=middle;whiteSpace=wrap;rounded=0;" vertex="1" parent="1">
          <mxGeometry x="850" y="35" width="60" height="30" as="geometry" />
        </mxCell>
        <mxCell id="YQuknea44hqfS1W9OkNM-9" value="&lt;h1 style=&quot;margin-top: 0px;&quot;&gt;Nome&lt;/h1&gt;&lt;p&gt;texto&lt;/p&gt;" style="text;html=1;whiteSpace=wrap;overflow=hidden;rounded=0;" vertex="1" parent="1">
          <mxGeometry x="260" y="260" width="180" height="120" as="geometry" />
        </mxCell>
        <mxCell id="YQuknea44hqfS1W9OkNM-10" value="" style="ellipse;whiteSpace=wrap;html=1;aspect=fixed;" vertex="1" parent="1">
          <mxGeometry x="610" y="220" width="200" height="200" as="geometry" />
        </mxCell>
        <mxCell id="YQuknea44hqfS1W9OkNM-11" value="" style="rounded=0;whiteSpace=wrap;html=1;" vertex="1" parent="1">
          <mxGeometry y="560" width="1010" height="110" as="geometry" />
        </mxCell>
        <mxCell id="YQuknea44hqfS1W9OkNM-13" value="&lt;h2 style=&quot;margin: 0px; font-family: Montserrat, sans-serif; text-align: start;&quot;&gt;Tecnologias que domino&lt;/h2&gt;" style="text;html=1;align=center;verticalAlign=middle;whiteSpace=wrap;rounded=0;" vertex="1" parent="1">
          <mxGeometry x="340" y="570" width="340" height="30" as="geometry" />
        </mxCell>
        <mxCell id="YQuknea44hqfS1W9OkNM-14" value="lista" style="text;html=1;align=center;verticalAlign=middle;whiteSpace=wrap;rounded=0;" vertex="1" parent="1">
          <mxGeometry x="340" y="610" width="60" height="30" as="geometry" />
        </mxCell>
        <mxCell id="YQuknea44hqfS1W9OkNM-15" value="lista" style="text;html=1;align=center;verticalAlign=middle;whiteSpace=wrap;rounded=0;" vertex="1" parent="1">
          <mxGeometry x="475" y="610" width="60" height="30" as="geometry" />
        </mxCell>
        <mxCell id="YQuknea44hqfS1W9OkNM-16" value="lista" style="text;html=1;align=center;verticalAlign=middle;whiteSpace=wrap;rounded=0;" vertex="1" parent="1">
          <mxGeometry x="600" y="610" width="60" height="30" as="geometry" />
        </mxCell>
        <mxCell id="YQuknea44hqfS1W9OkNM-17" value="" style="rounded=0;whiteSpace=wrap;html=1;" vertex="1" parent="1">
          <mxGeometry y="670" width="1010" height="540" as="geometry" />
        </mxCell>
        <mxCell id="YQuknea44hqfS1W9OkNM-18" value="" style="rounded=1;whiteSpace=wrap;html=1;" vertex="1" parent="1">
          <mxGeometry x="160" y="790" width="230" height="250" as="geometry" />
        </mxCell>
        <mxCell id="YQuknea44hqfS1W9OkNM-19" value="&lt;h1 style=&quot;margin-top: 0px;&quot;&gt;Sobre mim&lt;/h1&gt;&lt;p&gt;Texto&lt;/p&gt;" style="text;html=1;whiteSpace=wrap;overflow=hidden;rounded=0;" vertex="1" parent="1">
          <mxGeometry x="580" y="820" width="180" height="120" as="geometry" />
        </mxCell>
        <mxCell id="YQuknea44hqfS1W9OkNM-20" value="" style="rounded=0;whiteSpace=wrap;html=1;" vertex="1" parent="1">
          <mxGeometry y="1210" width="1010" height="790" as="geometry" />
        </mxCell>
        <mxCell id="YQuknea44hqfS1W9OkNM-21" value="Experiência" style="text;html=1;align=center;verticalAlign=middle;whiteSpace=wrap;rounded=0;" vertex="1" parent="1">
          <mxGeometry x="450" y="1250" width="110" height="30" as="geometry" />
        </mxCell>
        <mxCell id="YQuknea44hqfS1W9OkNM-22" value="" style="rounded=1;whiteSpace=wrap;html=1;" vertex="1" parent="1">
          <mxGeometry x="144" y="1350" width="270" height="210" as="geometry" />
        </mxCell>
        <mxCell id="YQuknea44hqfS1W9OkNM-24" value="" style="rounded=1;whiteSpace=wrap;html=1;" vertex="1" parent="1">
          <mxGeometry x="610" y="1350" width="270" height="210" as="geometry" />
        </mxCell>
        <mxCell id="YQuknea44hqfS1W9OkNM-26" value="" style="rounded=1;whiteSpace=wrap;html=1;" vertex="1" parent="1">
          <mxGeometry x="144" y="1690" width="270" height="210" as="geometry" />
        </mxCell>
        <mxCell id="YQuknea44hqfS1W9OkNM-27" value="" style="rounded=1;whiteSpace=wrap;html=1;" vertex="1" parent="1">
          <mxGeometry x="620" y="1690" width="270" height="210" as="geometry" />
        </mxCell>
        <mxCell id="YQuknea44hqfS1W9OkNM-28" value="Text" style="text;html=1;align=center;verticalAlign=middle;whiteSpace=wrap;rounded=0;" vertex="1" parent="1">
          <mxGeometry x="150" y="1650" width="60" height="30" as="geometry" />
        </mxCell>
        <mxCell id="YQuknea44hqfS1W9OkNM-29" value="Text" style="text;html=1;align=center;verticalAlign=middle;whiteSpace=wrap;rounded=0;" vertex="1" parent="1">
          <mxGeometry x="144" y="1320" width="60" height="30" as="geometry" />
        </mxCell>
        <mxCell id="YQuknea44hqfS1W9OkNM-30" value="Text" style="text;html=1;align=center;verticalAlign=middle;whiteSpace=wrap;rounded=0;" vertex="1" parent="1">
          <mxGeometry x="620" y="1310" width="60" height="30" as="geometry" />
        </mxCell>
        <mxCell id="YQuknea44hqfS1W9OkNM-31" value="Text" style="text;html=1;align=center;verticalAlign=middle;whiteSpace=wrap;rounded=0;" vertex="1" parent="1">
          <mxGeometry x="630" y="1660" width="60" height="30" as="geometry" />
        </mxCell>
        <mxCell id="YQuknea44hqfS1W9OkNM-32" value="" style="rounded=0;whiteSpace=wrap;html=1;" vertex="1" parent="1">
          <mxGeometry x="-2" y="2000" width="1012" height="480" as="geometry" />
        </mxCell>
        <mxCell id="YQuknea44hqfS1W9OkNM-33" value="REDES SOCIAIS" style="text;html=1;align=center;verticalAlign=middle;whiteSpace=wrap;rounded=0;" vertex="1" parent="1">
          <mxGeometry x="245" y="2070" width="60" height="30" as="geometry" />
        </mxCell>
        <mxCell id="YQuknea44hqfS1W9OkNM-35" value="" style="ellipse;whiteSpace=wrap;html=1;aspect=fixed;" vertex="1" parent="1">
          <mxGeometry x="180" y="2180" width="40" height="40" as="geometry" />
        </mxCell>
        <mxCell id="YQuknea44hqfS1W9OkNM-36" value="" style="ellipse;whiteSpace=wrap;html=1;aspect=fixed;" vertex="1" parent="1">
          <mxGeometry x="255" y="2180" width="40" height="40" as="geometry" />
        </mxCell>
        <mxCell id="YQuknea44hqfS1W9OkNM-37" value="" style="ellipse;whiteSpace=wrap;html=1;aspect=fixed;" vertex="1" parent="1">
          <mxGeometry x="330" y="2180" width="40" height="40" as="geometry" />
        </mxCell>
        <mxCell id="YQuknea44hqfS1W9OkNM-39" value="Contatos" style="text;html=1;align=center;verticalAlign=middle;whiteSpace=wrap;rounded=0;" vertex="1" parent="1">
          <mxGeometry x="725" y="2060" width="60" height="30" as="geometry" />
        </mxCell>
        <mxCell id="YQuknea44hqfS1W9OkNM-40" value="" style="rounded=0;whiteSpace=wrap;html=1;" vertex="1" parent="1">
          <mxGeometry x="660" y="2130" width="203" height="30" as="geometry" />
        </mxCell>
        <mxCell id="YQuknea44hqfS1W9OkNM-41" value="Text" style="text;html=1;align=center;verticalAlign=middle;whiteSpace=wrap;rounded=0;" vertex="1" parent="1">
          <mxGeometry x="650" y="2100" width="60" height="30" as="geometry" />
        </mxCell>
        <mxCell id="YQuknea44hqfS1W9OkNM-42" value="" style="rounded=0;whiteSpace=wrap;html=1;" vertex="1" parent="1">
          <mxGeometry x="660" y="2220" width="203" height="30" as="geometry" />
        </mxCell>
        <mxCell id="YQuknea44hqfS1W9OkNM-43" value="Text" style="text;html=1;align=center;verticalAlign=middle;whiteSpace=wrap;rounded=0;" vertex="1" parent="1">
          <mxGeometry x="650" y="2190" width="60" height="30" as="geometry" />
        </mxCell>
        <mxCell id="YQuknea44hqfS1W9OkNM-46" value="" style="rounded=0;whiteSpace=wrap;html=1;" vertex="1" parent="1">
          <mxGeometry x="658.5" y="2308" width="203" height="132" as="geometry" />
        </mxCell>
        <mxCell id="YQuknea44hqfS1W9OkNM-47" value="Text" style="text;html=1;align=center;verticalAlign=middle;whiteSpace=wrap;rounded=0;" vertex="1" parent="1">
          <mxGeometry x="658.5" y="2278" width="60" height="30" as="geometry" />
        </mxCell>
      </root>
    </mxGraphModel>
  </diagram>
</mxfile>
